<svg width="80" height="80" viewBox="0 0 80 80" fill="none" xmlns="http://www.w3.org/2000/svg">
<circle cx="40" cy="40" r="40" fill="#FECB92"/>
<path d="M49.3245 50.1843H30.6779C30.3433 50.1843 30.0718 49.9128 30.0718 49.5784V39.7357C30.0718 36.9848 27.833 34.7489 25.0826 34.7489C22.948 34.7489 21.2122 36.4831 21.2122 38.6172C21.2122 40.258 22.5467 41.591 24.1868 41.591C25.4317 41.591 26.445 40.5779 26.445 39.3334C26.445 38.4039 25.6887 37.6477 24.7589 37.6477C24.4244 37.6477 24.1529 37.3762 24.1529 37.0417C24.1529 36.7073 24.4244 36.4358 24.7589 36.4358C26.3566 36.4358 27.6572 37.7349 27.6572 39.3334C27.6572 41.2469 26.1008 42.8029 24.1868 42.8029C21.8788 42.8029 20 40.9245 20 38.6172C20 35.8153 22.2801 33.5371 25.0814 33.5371C28.5009 33.5371 31.2828 36.3183 31.2828 39.7357V48.9724H48.7184V39.7357C48.7184 36.3183 51.5003 33.5371 54.9186 33.5371C57.7211 33.5371 60 35.8166 60 38.6172C60 40.9245 58.1212 42.8029 55.8132 42.8029C53.9004 42.8029 52.344 41.2469 52.344 39.3334C52.344 37.7361 53.6434 36.4358 55.2411 36.4358C55.5756 36.4358 55.8471 36.7073 55.8471 37.0417C55.8471 37.3762 55.5756 37.6477 55.2411 37.6477C54.3113 37.6477 53.5562 38.4039 53.5562 39.3334C53.5562 40.5779 54.5683 41.591 55.8132 41.591C57.4545 41.591 58.7878 40.2568 58.7878 38.6172C58.7878 36.4831 57.052 34.7489 54.9186 34.7489C52.167 34.7489 49.9306 36.986 49.9306 39.7357V49.5784C49.9306 49.9128 49.6603 50.1843 49.3245 50.1843Z" fill="#D473C4"/>
<path d="M54.0506 56H26.0825C24.703 56 23.5818 54.8778 23.5818 53.4999V42.1982C23.5818 41.8637 23.8533 41.5923 24.1879 41.5923C24.5224 41.5923 24.7939 41.8637 24.7939 42.1982V53.4999C24.7939 54.2101 25.3734 54.7881 26.0825 54.7881H54.0506C54.7609 54.7881 55.3391 54.2089 55.3391 53.4999V42.1982C55.3391 41.8637 55.6106 41.5923 55.9452 41.5923C56.2797 41.5923 56.5513 41.8637 56.5513 42.1982V53.4999C56.5513 54.8778 55.43 56 54.0506 56Z" fill="#D473C4"/>
<path d="M49.3247 45.0533H30.6781C30.3435 45.0533 30.072 44.7819 30.072 44.4474C30.072 44.1129 30.3435 43.8415 30.6781 43.8415H49.3259C49.6605 43.8415 49.932 44.1129 49.932 44.4474C49.932 44.7819 49.6605 45.0533 49.3247 45.0533Z" fill="#D473C4"/>
<path d="M53.4106 34.7489C53.076 34.7489 52.8045 34.4775 52.8045 34.143V30.1936C52.8045 26.8949 50.1208 24.2119 46.8213 24.2119H33.3094C30.0099 24.2119 27.3262 26.8949 27.3262 30.1936V34.143C27.3262 34.4775 27.0546 34.7489 26.7201 34.7489C26.3855 34.7489 26.114 34.4775 26.114 34.143V30.1936C26.114 26.2284 29.342 23 33.3094 23H46.8213C50.7875 23 54.0167 26.2272 54.0167 30.1936V34.143C54.0167 34.4775 53.7464 34.7489 53.4106 34.7489Z" fill="#D473C4"/>
<path d="M33.9395 30.7886C34.6089 30.7886 35.1516 30.246 35.1516 29.5767C35.1516 28.9074 34.6089 28.3649 33.9395 28.3649C33.27 28.3649 32.7273 28.9074 32.7273 29.5767C32.7273 30.246 33.27 30.7886 33.9395 30.7886Z" fill="#D473C4"/>
<path d="M46.0618 30.7886C46.7312 30.7886 47.2739 30.246 47.2739 29.5767C47.2739 28.9074 46.7312 28.3649 46.0618 28.3649C45.3923 28.3649 44.8496 28.9074 44.8496 29.5767C44.8496 30.246 45.3923 30.7886 46.0618 30.7886Z" fill="#D473C4"/>
<path d="M40.0007 30.7886C40.6702 30.7886 41.2129 30.246 41.2129 29.5767C41.2129 28.9074 40.6702 28.3649 40.0007 28.3649C39.3313 28.3649 38.7886 28.9074 38.7886 29.5767C38.7886 30.246 39.3313 30.7886 40.0007 30.7886Z" fill="#D473C4"/>
<path d="M40.0007 36.8478C40.6702 36.8478 41.2129 36.3053 41.2129 35.636C41.2129 34.9667 40.6702 34.4241 40.0007 34.4241C39.3313 34.4241 38.7886 34.9667 38.7886 35.636C38.7886 36.3053 39.3313 36.8478 40.0007 36.8478Z" fill="#D473C4"/>
<path d="M37.5762 41.6953C38.2456 41.6953 38.7883 41.1527 38.7883 40.4834C38.7883 39.8141 38.2456 39.2716 37.5762 39.2716C36.9067 39.2716 36.364 39.8141 36.364 40.4834C36.364 41.1527 36.9067 41.6953 37.5762 41.6953Z" fill="#D473C4"/>
<path d="M33.9395 36.8478C34.6089 36.8478 35.1516 36.3053 35.1516 35.636C35.1516 34.9667 34.6089 34.4241 33.9395 34.4241C33.27 34.4241 32.7273 34.9667 32.7273 35.636C32.7273 36.3053 33.27 36.8478 33.9395 36.8478Z" fill="#D473C4"/>
<path d="M42.4253 41.6953C43.0947 41.6953 43.6375 41.1527 43.6375 40.4834C43.6375 39.8141 43.0947 39.2716 42.4253 39.2716C41.7558 39.2716 41.2131 39.8141 41.2131 40.4834C41.2131 41.1527 41.7558 41.6953 42.4253 41.6953Z" fill="#D473C4"/>
<path d="M46.0618 36.8478C46.7312 36.8478 47.2739 36.3053 47.2739 35.636C47.2739 34.9667 46.7312 34.4241 46.0618 34.4241C45.3923 34.4241 44.8496 34.9667 44.8496 35.636C44.8496 36.3053 45.3923 36.8478 46.0618 36.8478Z" fill="#D473C4"/>
</svg>
