<svg width="40" height="30" viewBox="0 0 40 30" fill="none" xmlns="http://www.w3.org/2000/svg">
<path d="M29.3245 24.7133H10.6779C10.3433 24.7133 10.0718 24.4665 10.0718 24.1624V15.2145C10.0718 12.7137 7.83296 10.681 5.08258 10.681C2.94797 10.681 1.21216 12.2576 1.21216 14.1976C1.21216 15.6893 2.54674 16.9012 4.18679 16.9012C5.43168 16.9012 6.44504 15.9802 6.44504 14.8487C6.44504 14.0037 5.68866 13.3163 4.75893 13.3163C4.42438 13.3163 4.15285 13.0695 4.15285 12.7654C4.15285 12.4614 4.42438 12.2146 4.75893 12.2146C6.35656 12.2146 7.6572 13.3956 7.6572 14.8487C7.6572 16.5883 6.10079 18.0029 4.18679 18.0029C1.87884 18.0029 0 16.2953 0 14.1976C0 11.6505 2.28007 9.57935 5.08137 9.57935C8.50086 9.57935 11.2828 12.1077 11.2828 15.2145V23.6116H28.7184V15.2145C28.7184 12.1077 31.5003 9.57935 34.9186 9.57935C37.7211 9.57935 40 11.6516 40 14.1976C40 16.2953 38.1212 18.0029 35.8132 18.0029C33.9004 18.0029 32.344 16.5883 32.344 14.8487C32.344 13.3967 33.6434 12.2146 35.2411 12.2146C35.5756 12.2146 35.8471 12.4614 35.8471 12.7654C35.8471 13.0695 35.5756 13.3163 35.2411 13.3163C34.3113 13.3163 33.5562 14.0037 33.5562 14.8487C33.5562 15.9802 34.5683 16.9012 35.8132 16.9012C37.4545 16.9012 38.7878 15.6882 38.7878 14.1976C38.7878 12.2576 37.052 10.681 34.9186 10.681C32.167 10.681 29.9306 12.7148 29.9306 15.2145V24.1624C29.9306 24.4665 29.6603 24.7133 29.3245 24.7133Z" fill="#D473C4"/>
<path d="M34.0508 30.0001H6.08271C4.70328 30.0001 3.58203 28.9799 3.58203 27.7273V17.4529C3.58203 17.1489 3.85355 16.9021 4.18811 16.9021C4.52267 16.9021 4.79419 17.1489 4.79419 17.4529V27.7273C4.79419 28.3729 5.3736 28.8984 6.08271 28.8984H34.0508C34.7612 28.8984 35.3394 28.3718 35.3394 27.7273V17.4529C35.3394 17.1489 35.6109 16.9021 35.9454 16.9021C36.28 16.9021 36.5515 17.1489 36.5515 17.4529V27.7273C36.5515 28.9799 35.4303 30.0001 34.0508 30.0001Z" fill="#D473C4"/>
<path d="M29.325 20.0483H10.6783C10.3438 20.0483 10.0723 19.8015 10.0723 19.4974C10.0723 19.1933 10.3438 18.9465 10.6783 18.9465H29.3262C29.6607 18.9465 29.9323 19.1933 29.9323 19.4974C29.9323 19.8015 29.6607 20.0483 29.325 20.0483Z" fill="#D473C4"/>
<path d="M33.4099 10.6808C33.0753 10.6808 32.8038 10.434 32.8038 10.13V6.53959C32.8038 3.54081 30.1201 1.10168 26.8206 1.10168H13.3086C10.0092 1.10168 7.32544 3.54081 7.32544 6.53959V10.13C7.32544 10.434 7.05392 10.6808 6.71936 10.6808C6.3848 10.6808 6.11328 10.434 6.11328 10.13V6.53959C6.11328 2.93489 9.34126 0 13.3086 0H26.8206C30.7867 0 34.0159 2.93378 34.0159 6.53959V10.13C34.0159 10.434 33.7456 10.6808 33.4099 10.6808Z" fill="#D473C4"/>
<path d="M13.9387 7.08067C14.6082 7.08067 15.1509 6.5874 15.1509 5.97893C15.1509 5.37046 14.6082 4.8772 13.9387 4.8772C13.2693 4.8772 12.7266 5.37046 12.7266 5.97893C12.7266 6.5874 13.2693 7.08067 13.9387 7.08067Z" fill="#D473C4"/>
<path d="M26.0618 7.08067C26.7312 7.08067 27.2739 6.5874 27.2739 5.97893C27.2739 5.37046 26.7312 4.8772 26.0618 4.8772C25.3923 4.8772 24.8496 5.37046 24.8496 5.97893C24.8496 6.5874 25.3923 7.08067 26.0618 7.08067Z" fill="#D473C4"/>
<path d="M20.0012 7.08067C20.6707 7.08067 21.2134 6.5874 21.2134 5.97893C21.2134 5.37046 20.6707 4.8772 20.0012 4.8772C19.3318 4.8772 18.7891 5.37046 18.7891 5.97893C18.7891 6.5874 19.3318 7.08067 20.0012 7.08067Z" fill="#D473C4"/>
<path d="M20.0012 12.5891C20.6707 12.5891 21.2134 12.0958 21.2134 11.4874C21.2134 10.879 20.6707 10.3857 20.0012 10.3857C19.3318 10.3857 18.7891 10.879 18.7891 11.4874C18.7891 12.0958 19.3318 12.5891 20.0012 12.5891Z" fill="#D473C4"/>
<path d="M17.5754 16.9958C18.2449 16.9958 18.7876 16.5026 18.7876 15.8942C18.7876 15.2857 18.2449 14.7925 17.5754 14.7925C16.906 14.7925 16.3633 15.2857 16.3633 15.8942C16.3633 16.5026 16.906 16.9958 17.5754 16.9958Z" fill="#D473C4"/>
<path d="M13.9387 12.5891C14.6082 12.5891 15.1509 12.0958 15.1509 11.4874C15.1509 10.879 14.6082 10.3857 13.9387 10.3857C13.2693 10.3857 12.7266 10.879 12.7266 11.4874C12.7266 12.0958 13.2693 12.5891 13.9387 12.5891Z" fill="#D473C4"/>
<path d="M22.425 16.9958C23.0945 16.9958 23.6372 16.5026 23.6372 15.8942C23.6372 15.2857 23.0945 14.7925 22.425 14.7925C21.7556 14.7925 21.2129 15.2857 21.2129 15.8942C21.2129 16.5026 21.7556 16.9958 22.425 16.9958Z" fill="#D473C4"/>
<path d="M26.0618 12.5891C26.7312 12.5891 27.2739 12.0958 27.2739 11.4874C27.2739 10.879 26.7312 10.3857 26.0618 10.3857C25.3923 10.3857 24.8496 10.879 24.8496 11.4874C24.8496 12.0958 25.3923 12.5891 26.0618 12.5891Z" fill="#D473C4"/>
</svg>
