<svg width="35" height="35" viewBox="0 0 35 35" fill="none" xmlns="http://www.w3.org/2000/svg">
<path d="M34.8826 29.1245L28.863 20.1386C29.4731 19.8966 29.8392 19.3436 29.7985 18.7215L29.3511 15.5419L31.9135 13.2608C32.4829 12.777 32.5236 11.9475 31.9542 11.3599L29.3918 9.00975L29.9205 5.79553C30.0019 5.1043 29.4325 4.41307 28.619 4.27483L24.9178 3.65272L23.1282 0.853237C22.7621 0.196569 21.8673 -0.0799235 21.0539 0.196569H21.0132L17.5967 1.54447L14.2615 0.162007C13.8954 -0.0108005 13.448 -0.045362 13.0413 0.0583225C12.6346 0.162007 12.3092 0.403938 12.1058 0.714991L10.2755 3.51447L6.5743 4.06746C5.72017 4.2057 5.15075 4.86237 5.23209 5.62272L5.67949 8.80238L3.1171 11.0834C2.54768 11.5673 2.50701 12.3968 3.07643 12.9843L5.63882 15.3345L5.11007 18.5487C5.02873 19.1708 5.47613 19.7584 6.16757 20.0003L0.107306 29.1245C-0.055386 29.3319 -0.0147131 29.6084 0.107306 29.8158C0.269997 30.0231 0.514034 30.1614 0.798745 30.1614H7.30641L10.2755 34.5507C10.4382 34.7581 10.6823 34.8963 10.967 34.8963C11.2517 34.8963 11.5364 34.7581 11.6584 34.5507L17.4746 26.1177L23.2909 34.6544C23.4536 34.8618 23.6976 35 23.9823 35C24.267 35 24.5517 34.8618 24.6737 34.6544L27.6429 30.1614H34.1505C34.4352 30.1614 34.72 30.0231 34.842 29.8158C35.0453 29.6084 35.0453 29.3319 34.8826 29.1245ZM11.0076 32.8226L8.48592 29.1245C8.32323 28.9172 8.0792 28.7789 7.79449 28.7789H2.18162L7.79449 20.3459L10.1128 20.6915L11.9024 23.491C12.2685 24.1477 13.1633 24.4242 13.9768 24.1477H14.0174L15.685 23.491L16.4985 24.7007L11.0076 32.8226ZM13.3667 22.9035C13.326 22.9035 13.326 22.9035 13.326 22.9035L11.5364 20.0349C11.2924 19.6893 10.8856 19.4128 10.3976 19.3782L6.65564 18.7907L7.18439 15.611C7.26574 15.1963 7.10305 14.747 6.77766 14.4705L4.25594 12.1203L6.81834 9.83923C7.18439 9.52817 7.34708 9.11344 7.26574 8.6987L6.81834 5.5536C6.81834 5.5536 6.81834 5.51904 6.85901 5.48448L10.5602 4.93149C11.0076 4.86237 11.455 4.62044 11.6991 4.24026L13.5294 1.44078L16.8645 2.82324C17.3119 3.03061 17.8814 3.03061 18.3288 2.82324L21.7046 1.50991C21.7453 1.50991 21.7453 1.50991 21.7453 1.50991L23.5349 4.37851C23.7789 4.72412 24.1857 5.00062 24.6331 5.03518L28.3343 5.65729L27.8056 8.83694C27.7242 9.25168 27.8869 9.70098 28.2123 9.97747L30.7747 12.3277L28.1716 14.6087C27.8056 14.9198 27.6429 15.3345 27.7242 15.7492L28.1716 18.9289L24.5111 19.4473C24.0636 19.5164 23.6162 19.7584 23.3722 20.1386L21.5419 22.938L18.2068 21.5556C17.7593 21.3482 17.1899 21.3482 16.7425 21.5556L13.3667 22.9035ZM27.1955 28.7789C26.9107 28.7789 26.626 28.9172 26.504 29.1245L23.9823 32.9263L18.2474 24.4933C18.2067 24.3896 18.1661 24.3205 18.0847 24.2514L17.1899 22.9035L17.4746 22.7998L20.8098 24.1822C21.0539 24.2859 21.2979 24.3205 21.5419 24.3205C22.1113 24.3205 22.6808 24.0786 22.9655 23.6293L24.7958 20.8298L27.2361 20.4496L32.8083 28.7789H27.1955Z" fill="#D473C4"/>
<path d="M25.609 12.1894C25.609 8.38765 21.9484 5.2771 17.4744 5.2771C13.0004 5.2771 9.33984 8.38765 9.33984 12.1894C9.33984 15.9912 13.0004 19.1018 17.4744 19.1018C21.9484 19.1018 25.609 15.9912 25.609 12.1894ZM17.4744 17.7193C13.8952 17.7193 10.9668 15.2309 10.9668 12.1894C10.9668 9.14801 13.8952 6.65957 17.4744 6.65957C21.0536 6.65957 23.9821 9.14801 23.9821 12.1894C23.9821 15.2309 21.0536 17.7193 17.4744 17.7193Z" fill="#D473C4"/>
</svg>
