<svg width="80" height="80" viewBox="0 0 80 80" fill="none" xmlns="http://www.w3.org/2000/svg">
<circle cx="40" cy="40" r="40" fill="#FFCD91"/>
<path d="M57.8826 53.2852L51.863 43.0155C52.4731 42.739 52.8392 42.107 52.7985 41.396L52.3511 37.7621L54.9135 35.1552C55.4829 34.6022 55.5236 33.6543 54.9542 32.9828L52.3918 30.2969L52.9205 26.6235C53.0019 25.8335 52.4325 25.0435 51.619 24.8855L47.9178 24.1745L46.1282 20.9751C45.7621 20.2246 44.8673 19.9087 44.0539 20.2246H44.0132L40.5967 21.7651L37.2615 20.1852C36.8954 19.9877 36.448 19.9482 36.0413 20.0667C35.6346 20.1852 35.3092 20.4616 35.1058 20.8171L33.2755 24.0165L29.5743 24.6485C28.7202 24.8065 28.1507 25.557 28.2321 26.426L28.6795 30.0599L26.1171 32.6668C25.5477 33.2198 25.507 34.1677 26.0764 34.8392L28.6388 37.5252L28.1101 41.1985C28.0287 41.9095 28.4761 42.581 29.1676 42.8575L23.1073 53.2852C22.9446 53.5222 22.9853 53.8382 23.1073 54.0752C23.27 54.3122 23.514 54.4702 23.7987 54.4702H30.3064L33.2755 59.4865C33.4382 59.7235 33.6823 59.8815 33.967 59.8815C34.2517 59.8815 34.5364 59.7235 34.6584 59.4865L40.4746 49.8488L46.2909 59.605C46.4536 59.842 46.6976 60 46.9823 60C47.267 60 47.5517 59.842 47.6737 59.605L50.6429 54.4702H57.1505C57.4352 54.4702 57.72 54.3122 57.842 54.0752C58.0453 53.8382 58.0453 53.5222 57.8826 53.2852ZM34.0076 57.5116L31.4859 53.2852C31.3232 53.0482 31.0792 52.8902 30.7945 52.8902H25.1816L30.7945 43.2525L33.1128 43.6475L34.9024 46.8469C35.2685 47.5974 36.1633 47.9133 36.9768 47.5974H37.0174L38.685 46.8469L39.4985 48.2293L34.0076 57.5116ZM36.3667 46.1754C36.326 46.1754 36.326 46.1754 36.326 46.1754L34.5364 42.897C34.2924 42.502 33.8856 42.186 33.3976 42.1465L29.6556 41.475L30.1844 37.8411C30.2657 37.3672 30.103 36.8537 29.7777 36.5377L27.2559 33.8518L29.8183 31.2448C30.1844 30.8893 30.3471 30.4154 30.2657 29.9414L29.8183 26.347C29.8183 26.347 29.8183 26.3075 29.859 26.268L33.5602 25.636C34.0076 25.557 34.455 25.2805 34.6991 24.846L36.5294 21.6466L39.8645 23.2266C40.3119 23.4636 40.8814 23.4636 41.3288 23.2266L44.7046 21.7256C44.7453 21.7256 44.7453 21.7256 44.7453 21.7256L46.5349 25.004C46.7789 25.399 47.1857 25.715 47.6331 25.7545L51.3343 26.4655L50.8056 30.0994C50.7242 30.5733 50.8869 31.0868 51.2123 31.4028L53.7747 34.0887L51.1716 36.6957C50.8056 37.0512 50.6429 37.5251 50.7242 37.9991L51.1716 41.633L47.5111 42.2255C47.0636 42.3045 46.6162 42.581 46.3722 43.0155L44.5419 46.2149L41.2068 44.6349C40.7593 44.398 40.1899 44.398 39.7425 44.6349L36.3667 46.1754ZM50.1955 52.8902C49.9107 52.8902 49.626 53.0482 49.504 53.2852L46.9823 57.6301L41.2474 47.9923C41.2067 47.8738 41.1661 47.7949 41.0847 47.7159L40.1899 46.1754L40.4746 46.0569L43.8098 47.6369C44.0539 47.7554 44.2979 47.7949 44.5419 47.7949C45.1113 47.7949 45.6808 47.5184 45.9655 47.0049L47.7958 43.8055L50.2361 43.371L55.8083 52.8902H50.1955Z" fill="#D473C4"/>
<path d="M48.6093 33.9308C48.6093 29.5859 44.9487 26.031 40.4747 26.031C36.0006 26.031 32.3401 29.5859 32.3401 33.9308C32.3401 38.2756 36.0006 41.8305 40.4747 41.8305C44.9487 41.8305 48.6093 38.2756 48.6093 33.9308ZM40.4747 40.2506C36.8955 40.2506 33.967 37.4067 33.967 33.9308C33.967 30.4549 36.8955 27.6109 40.4747 27.6109C44.0539 27.6109 46.9823 30.4549 46.9823 33.9308C46.9823 37.4067 44.0539 40.2506 40.4747 40.2506Z" fill="#D473C4"/>
</svg>
