<svg width="36" height="36" viewBox="0 0 36 36" fill="none" xmlns="http://www.w3.org/2000/svg">
<path d="M12.1659 14.1495C11.9369 14.4215 12.0139 14.7984 12.338 14.9908C13.9997 15.9781 15.9578 16.5 17.9996 16.5C23.4136 16.5 27.818 12.7991 27.818 8.24999C27.818 3.70086 23.4139 0 18 0C12.5861 0 8.18164 3.70086 8.18164 8.24999C8.18164 9.98016 8.81213 11.6365 10.005 13.0396C10.2355 13.311 10.6841 13.3739 11.007 13.1802C11.33 12.9865 11.4048 12.6095 11.1743 12.3382C10.1565 11.1406 9.61847 9.72675 9.61847 8.24999C9.61847 4.36646 13.3782 1.20732 18 1.20732C22.6214 1.20732 26.3812 4.36646 26.3812 8.24999C26.3812 12.1332 22.6214 15.2927 18 15.2927C16.2567 15.2927 14.5853 14.8472 13.1675 14.0049C12.8435 13.8124 12.3952 13.8772 12.1659 14.1495Z" fill="#D473C4"/>
<path d="M19.3575 5.01696C18.9953 4.68373 18.5127 4.5 17.9991 4.5C16.9399 4.5 16.0781 5.28995 16.0781 6.26089V7.23916H15.0109C13.9516 7.23916 13.0898 8.02911 13.0898 9.00005C13.0898 9.97098 13.9516 10.7609 15.0109 10.7609H16.0781V11.7392C16.0781 12.7101 16.9399 13.5001 17.9991 13.5001C19.0583 13.5001 19.9201 12.7101 19.9201 11.7392V10.7609H20.9873C21.5009 10.7609 21.9835 10.5772 22.3444 10.2455C22.7079 9.9132 22.908 9.47084 22.908 9.00005C22.908 8.02911 22.0466 7.23916 20.9873 7.23916H19.9201V6.26089C19.9201 5.78979 19.7197 5.34743 19.3575 5.01696ZM20.9873 8.41308C21.3402 8.41308 21.6273 8.6763 21.6273 9.00005C21.6273 9.15657 21.561 9.30362 21.4386 9.4152C21.3182 9.52617 21.1581 9.58701 20.9873 9.58701H19.2798C18.9259 9.58701 18.6394 9.84992 18.6394 10.174V11.7392C18.6394 12.063 18.3523 12.3262 17.9991 12.3262C17.6459 12.3262 17.3588 12.063 17.3588 11.7392V10.174C17.3588 9.84992 17.0719 9.58701 16.7184 9.58701H15.0109C14.6577 9.58701 14.3705 9.32379 14.3705 9.00005C14.3705 8.6763 14.6577 8.41308 15.0109 8.41308H16.7184C17.0719 8.41308 17.3588 8.15017 17.3588 7.82612V6.26089C17.3588 5.93714 17.6459 5.67393 17.9991 5.67393C18.1699 5.67393 18.3299 5.73476 18.452 5.84726C18.5727 5.95732 18.6394 6.10436 18.6394 6.26089V7.82612C18.6394 8.15017 18.9259 8.41308 19.2798 8.41308H20.9873Z" fill="#D473C4"/>
<path d="M28.1566 23.7535C26.0237 23.7535 24.0172 24.4924 22.4881 25.8332L21.544 24.9779L34.8109 12.9557C35.5778 12.2608 36 11.3367 36 10.3543C36 9.37159 35.5778 8.44789 34.8109 7.75359C34.6304 7.59001 34.3912 7.5 34.137 7.5C33.8821 7.5 33.6425 7.59001 33.4623 7.75359L31.7004 9.35029C31.4334 9.59227 30.6868 10.6873 30.9538 10.9293C31.2208 11.1712 32.4 10.4682 32.667 10.2262L34.1145 8.91442C34.4513 9.32964 34.6329 9.8294 34.6329 10.3543C34.6329 11.006 34.3527 11.6187 33.8443 12.0798L20.5774 24.1017L18.9668 22.6421L32.667 10.2262C32.934 9.98426 31.2208 11.1709 30.9538 10.9293C30.6868 10.6873 31.9674 9.10832 31.7004 9.35029L18.0002 21.7661L2.53768 7.75359C2.35754 7.59001 2.11794 7.50032 1.86303 7.50032C1.60848 7.50032 1.36924 7.59034 1.18945 7.75327C0.422235 8.44789 0 9.37159 0 10.3543C0 11.3367 0.422235 12.2608 1.18945 12.9557L14.456 24.9779L13.5122 25.8332C11.9831 24.4924 9.97628 23.7535 7.84339 23.7535C5.66457 23.7535 3.61606 24.5227 2.07557 25.9187C-0.465313 28.2213 -0.465313 31.9677 2.07557 34.2704C3.30632 35.3857 4.94257 36 6.68314 36C8.42406 36 10.0603 35.3857 11.2911 34.2704L18.0002 28.1897L24.7089 34.2704C25.9397 35.3857 27.5763 36 29.3169 36C31.0574 36 32.694 35.3857 33.9248 34.2704C36.4653 31.9677 36.4653 28.2213 33.9248 25.9187C32.3839 24.5227 30.3358 23.7535 28.1566 23.7535ZM1.3671 10.3543C1.3671 9.8294 1.54867 9.32997 1.88546 8.91442L21.519 26.7072L19.9084 28.1668L2.15603 12.0798C1.64729 11.6187 1.3671 11.006 1.3671 10.3543ZM10.3245 33.3944C9.35183 34.2755 8.05878 34.7611 6.68314 34.7611C5.30785 34.7611 4.01479 34.2755 3.04216 33.3944C1.03458 31.5748 1.03458 28.6143 3.04216 26.795C4.32453 25.6325 6.02949 24.9928 7.84339 24.9928C9.65694 24.9928 11.3619 25.6325 12.6446 26.795L15.1253 29.0431L10.3245 33.3944ZM16.0923 28.1671L14.481 26.7072L15.4226 25.8539L17.0336 27.3138L16.0923 28.1671ZM32.9578 33.3944C31.9852 34.2755 30.6922 34.7611 29.3169 34.7611C27.9416 34.7611 26.6485 34.2755 25.6759 33.3944L20.875 29.0431L23.3557 26.795C24.6381 25.6325 26.3431 24.9928 28.157 24.9928C29.9705 24.9928 31.6755 25.6325 32.9578 26.795C34.9658 28.6143 34.9658 31.5748 32.9578 33.3944Z" fill="#D473C4"/>
</svg>
