<svg width="80" height="80" viewBox="0 0 80 80" fill="none" xmlns="http://www.w3.org/2000/svg">
<circle cx="40" cy="40" r="40" fill="#FECB92"/>
<path d="M34.1659 35.7217C33.9369 36.0239 34.0139 36.4427 34.338 36.6565C35.9997 37.7534 37.9578 38.3333 39.9996 38.3333C45.4136 38.3333 49.818 34.2213 49.818 29.1667C49.818 24.1121 45.414 20 40 20C34.5861 20 30.1816 24.1121 30.1816 29.1667C30.1816 31.0891 30.8121 32.9294 32.005 34.4885C32.2355 34.79 32.6841 34.8599 33.007 34.6447C33.33 34.4295 33.4048 34.0106 33.1743 33.7091C32.1565 32.3785 31.6185 30.8075 31.6185 29.1667C31.6185 24.8516 35.3782 21.3415 40 21.3415C44.6215 21.3415 48.3812 24.8516 48.3812 29.1667C48.3812 33.4814 44.6215 36.9919 40 36.9919C38.2567 36.9919 36.5853 36.4969 35.1675 35.561C34.8435 35.3472 34.3952 35.4191 34.1659 35.7217Z" fill="#D473C4"/>
<path d="M41.3585 25.5744C40.9963 25.2041 40.5137 25 40.0001 25C38.9409 25 38.0791 25.8777 38.0791 26.9565V28.0435H37.0118C35.9526 28.0435 35.0908 28.9212 35.0908 30C35.0908 31.0788 35.9526 31.9565 37.0118 31.9565H38.0791V33.0435C38.0791 34.1223 38.9409 35 40.0001 35C41.0593 35 41.9211 34.1223 41.9211 33.0435V31.9565H42.9883C43.5019 31.9565 43.9845 31.7524 44.3454 31.3838C44.7089 31.0146 44.909 30.5231 44.909 30C44.909 28.9212 44.0475 28.0435 42.9883 28.0435H41.9211V26.9565C41.9211 26.4331 41.7207 25.9416 41.3585 25.5744ZM42.9883 29.3478C43.3412 29.3478 43.6283 29.6403 43.6283 30C43.6283 30.1739 43.562 30.3373 43.4396 30.4613C43.3192 30.5846 43.1591 30.6522 42.9883 30.6522H41.2808C40.9269 30.6522 40.6404 30.9443 40.6404 31.3043V33.0435C40.6404 33.4032 40.3533 33.6957 40.0001 33.6957C39.6469 33.6957 39.3597 33.4032 39.3597 33.0435V31.3043C39.3597 30.9443 39.0729 30.6522 38.7194 30.6522H37.0118C36.6586 30.6522 36.3715 30.3597 36.3715 30C36.3715 29.6403 36.6586 29.3478 37.0118 29.3478H38.7194C39.0729 29.3478 39.3597 29.0557 39.3597 28.6957V26.9565C39.3597 26.5968 39.6469 26.3043 40.0001 26.3043C40.1708 26.3043 40.3309 26.3719 40.453 26.4969C40.5737 26.6192 40.6404 26.7826 40.6404 26.9565V28.6957C40.6404 29.0557 40.9269 29.3478 41.2808 29.3478H42.9883Z" fill="#D473C4"/>
<path d="M50.1566 46.3928C48.0237 46.3928 46.0172 47.2137 44.4881 48.7036L43.544 47.7533L56.8109 34.3952C57.5778 33.6231 58 32.5964 58 31.5048C58 30.4129 57.5778 29.3865 56.8109 28.6151C56.6304 28.4334 56.3912 28.3333 56.137 28.3333C55.8821 28.3333 55.6425 28.4334 55.4623 28.6151L53.7004 30.3892C53.4334 30.6581 52.6868 31.8748 52.9538 32.1436C53.2208 32.4125 54.4 31.6313 54.667 31.3625L56.1145 29.9049C56.4513 30.3663 56.6329 30.9216 56.6329 31.5048C56.6329 32.2289 56.3527 32.9097 55.8443 33.422L42.5774 46.7796L40.9668 45.1579L54.667 31.3625C54.934 31.0936 53.2208 32.4121 52.9538 32.1436C52.6868 31.8748 53.9674 30.1204 53.7004 30.3892L40.0002 44.1846L24.5377 28.6151C24.3575 28.4334 24.1179 28.3337 23.863 28.3337C23.6085 28.3337 23.3692 28.4337 23.1895 28.6147C22.4222 29.3865 22 30.4129 22 31.5048C22 32.5964 22.4222 33.6231 23.1895 34.3952L36.456 47.7533L35.5122 48.7036C33.9831 47.2137 31.9763 46.3928 29.8434 46.3928C27.6646 46.3928 25.6161 47.2474 24.0756 48.7986C21.5347 51.3571 21.5347 55.5197 24.0756 58.0782C25.3063 59.3175 26.9426 60 28.6831 60C30.4241 60 32.0603 59.3175 33.2911 58.0782L40.0002 51.3219L46.7089 58.0782C47.9397 59.3175 49.5763 60 51.3169 60C53.0574 60 54.694 59.3175 55.9248 58.0782C58.4653 55.5197 58.4653 51.3571 55.9248 48.7986C54.3839 47.2474 52.3358 46.3928 50.1566 46.3928ZM23.3671 31.5048C23.3671 30.9216 23.5487 30.3666 23.8855 29.9049L43.519 49.6747L41.9084 51.2965L24.156 33.422C23.6473 32.9097 23.3671 32.2289 23.3671 31.5048ZM32.3245 57.1049C31.3518 58.0839 30.0588 58.6234 28.6831 58.6234C27.3078 58.6234 26.0148 58.0839 25.0422 57.1049C23.0346 55.0831 23.0346 51.7937 25.0422 49.7722C26.3245 48.4806 28.0295 47.7697 29.8434 47.7697C31.6569 47.7697 33.3619 48.4806 34.6446 49.7722L37.1253 52.2701L32.3245 57.1049ZM38.0923 51.2968L36.481 49.6747L37.4226 48.7265L39.0336 50.3487L38.0923 51.2968ZM54.9578 57.1049C53.9852 58.0839 52.6922 58.6234 51.3169 58.6234C49.9416 58.6234 48.6485 58.0839 47.6759 57.1049L42.875 52.2701L45.3557 49.7722C46.6381 48.4806 48.3431 47.7697 50.157 47.7697C51.9705 47.7697 53.6755 48.4806 54.9578 49.7722C56.9658 51.7937 56.9658 55.0831 54.9578 57.1049Z" fill="#D473C4"/>
</svg>
